<svg id="Layer_1" data-name="Layer 1" xmlns="http://www.w3.org/2000/svg" viewBox="0 0 247.28 301.26"><title>pause</title><path d="M123.06,318.4c0-43.16.55-86.32-.26-129.46-.28-14.82,3.35-21.71,19.5-20.62,17.57,1.19,35.3.68,52.94.21,11.14-.3,15.13,4.75,15.12,15.29q-.13,134.35.11,268.72c0,11.1-3.63,17.06-15.92,16.7-18.29-.54-36.63-.53-54.91.2-13.17.52-16.89-5.44-16.77-17.66C123.29,407.32,123,362.86,123.06,318.4Z" transform="translate(-122.78 -168.21)"/><path d="M369.8,320.43c0,43.76-.36,87.53.25,131.29.18,12.63-3.71,17.83-16.68,17.38-18.27-.64-36.58-.34-54.86.2-10.92.32-15.27-4.23-15.26-15q.19-135.21-.06-270.42c0-10.18,3-15.86,14.61-15.46,18.92.65,37.89.65,56.82.1,12.37-.36,15.45,5.36,15.34,16.7C369.53,230.29,369.79,275.36,369.8,320.43Z" transform="translate(-122.78 -168.21)"/></svg>